PathFileType	4	(X/Y/Z)	/Users/itak/Documents/Research/Walk-IL/dataset/trc/00421_00012.trc
DataRate	CameraRate	NumFrames	NumMarkers	Units	OrigDataRate	OrigDataStartFrame	OrigNumFrames
100.000000	100.000000	4	53	mm	100.000000	211	564
Frame#	Time	RPSI			LPSI			L3			STRN			T10			C7			CLAV			RBAK			LBAK			LSHO			LUPA			LAEL			LAOL			LWTS			LWPS			LFRA			LIFD			LHPS			LHTS			RSHO			RUPA			RAEL			RAOL			RWTS			RWPS			RFRA			RIFD			RHPS			RBHD			LFHD			RFHD			LBHD			LHIP			RHIP			RASI			LASI			LKNE			LTHI			LANK			LTIP			LTOE			LMT1			LMT5			LHEE			RKNE			RTHI			RANK			RTIP			RTOE			RMT1			RMT5			RHEE			RHTS			
		X1	Y1	Z1	X2	Y2	Z2	X3	Y3	Z3	X4	Y4	Z4	X5	Y5	Z5	X6	Y6	Z6	X7	Y7	Z7	X8	Y8	Z8	X9	Y9	Z9	X10	Y10	Z10	X11	Y11	Z11	X12	Y12	Z12	X13	Y13	Z13	X14	Y14	Z14	X15	Y15	Z15	X16	Y16	Z16	X17	Y17	Z17	X18	Y18	Z18	X19	Y19	Z19	X20	Y20	Z20	X21	Y21	Z21	X22	Y22	Z22	X23	Y23	Z23	X24	Y24	Z24	X25	Y25	Z25	X26	Y26	Z26	X27	Y27	Z27	X28	Y28	Z28	X29	Y29	Z29	X30	Y30	Z30	X31	Y31	Z31	X32	Y32	Z32	X33	Y33	Z33	X34	Y34	Z34	X35	Y35	Z35	X36	Y36	Z36	X37	Y37	Z37	X38	Y38	Z38	X39	Y39	Z39	X40	Y40	Z40	X41	Y41	Z41	X42	Y42	Z42	X43	Y43	Z43	X44	Y44	Z44	X45	Y45	Z45	X46	Y46	Z46	X47	Y47	Z47	X48	Y48	Z48	X49	Y49	Z49	X50	Y50	Z50	X51	Y51	Z51	X52	Y52	Z52	X53	Y53	Z53	

212	2.11	-1323.252807617188	946.3428955078125	-546.361328125	-1340.533935546875	945.5289916992188	-676.7867431640625	-1324.920166015625	1027.384765625	-614.8182373046875	-1079.109985351562	1159.162841796875	-625.2688598632812	-1329.945434570312	1129.344848632812	-628.7655029296875	-1267.962890625	1373.439086914062	-641.9984741210938	-1121.670288085938	1282.203369140625	-625.6782836914062	-1329.080932617188	1232.791381835938	-578.2877807617188	-1277.881225585938	1336.8115234375	-746.572509765625	-1187.111328125	1346.276245117188	-789.8756713867188	-1206.0625	1231.023071289062	-863.3261108398438	-1173.443481445312	1036.045288085938	-881.917236328125	-1240.9326171875	1009.724365234375	-834.8451538085938	-1025.155883789062	882.286865234375	-799.805419921875	-1044.73828125	850.4490356445312	-873.0147705078125	-1126.738525390625	948.029541015625	-882.124755859375	-952.3832397460938	717.0501708984375	-788.852294921875	-999.2138671875	779.308837890625	-855.2432861328125	-965.5126953125	800.4241333007812	-805.941650390625	-1223.376586914062	1346.687133789062	-479.8148803710938	-1249.688842773438	1285.09375	-424.3204345703125	-1289.403076171875	1028.826293945312	-377.1875305175781	-1290.0947265625	1014.622192382812	-470.794189453125	-1199.869384765625	793.7796630859375	-359.5523376464844	-1256.919799804688	797.2903442382812	-312.0222473144531	-1278.809326171875	963.4426879882812	-351.1207885742188	-1240.148803710938	624.2352905273438	-348.6224060058594	-1270.360961914062	709.3809204101562	-305.3164978027344	-1247.521240234375	1548.478393554688	-551.8226928710938	-1087.21044921875	1565.612915039062	-668.5193481445312	-1115.619506835938	1565.224243164062	-549.2137451171875	-1227.864990234375	1546.69970703125	-712.88037109375	-1270.159423828125	925.8038330078125	-800.7039794921875	-1225.642944335938	924.6178588867188	-443.8137817382812	-1104.9443359375	928.6644897460938	-519.475341796875	-1150.597412109375	912.7131958007812	-779.128662109375	-1327.955688476562	440.8760681152344	-758.521728515625	-1299.502563476562	580.8834228515625	-779.7266845703125	-1548.519775390625	48.13862991333008	-685.2305297851562	-1443.03076171875	234.3162994384766	-734.4359130859375	-1335.198974609375	44.90107727050781	-621.3056640625	-1413.826293945312	48.30155563354492	-591.0181274414062	-1422.745361328125	39.76797485351562	-697.4019165039062	-1587.5556640625	56.3677978515625	-629.3978271484375	-1019.293029785156	473.31640625	-508.6920166015625	-1095.915283203125	721.7865600585938	-468.2946166992188	-906.46728515625	61.20077133178711	-570.7633666992188	-966.1434936523438	360.0635375976562	-529.1380615234375	-740.366455078125	114.4438934326172	-628.7052612304688	-807.9854125976562	93.808837890625	-660.6770629882812	-824.1144409179688	75.13313293457031	-563.2586059570312	-968.8251953125	29.93052291870117	-627.1158447265625	-1211.563232421875	688.5018920898438	-331.2868347167969	
213	2.12	-1314.449096679688	944.60302734375	-546.0389404296875	-1331.748901367188	943.86376953125	-676.42919921875	-1316.25048828125	1025.828247070312	-614.54736328125	-1070.414916992188	1157.379028320312	-624.6659545898438	-1321.157958984375	1127.729614257812	-628.589599609375	-1259.113525390625	1371.8203125	-641.4723510742188	-1112.900024414062	1280.437744140625	-624.9776611328125	-1320.495361328125	1231.162353515625	-578.1571655273438	-1268.84423828125	1335.347900390625	-746.1227416992188	-1177.968139648438	1344.8134765625	-789.220458984375	-1196.817504882812	1229.605590820312	-862.8504638671875	-1164.154052734375	1034.7138671875	-881.4172973632812	-1231.907470703125	1008.16748046875	-834.6166381835938	-1014.675903320312	883.0311279296875	-798.8438720703125	-1033.729614257812	850.802734375	-872.0128784179688	-1116.899291992188	947.3470458984375	-881.5009765625	-939.4053955078125	718.944580078125	-787.5000610351562	-987.1845092773438	780.3870849609375	-854.0494384765625	-953.5987548828125	802.1353759765625	-804.6553344726562	-1214.947509765625	1344.747680664062	-479.2412109375	-1241.56494140625	1283.081787109375	-424.0518493652344	-1282.750244140625	1026.783081054688	-378.1709289550781	-1282.963256835938	1013.030517578125	-471.758544921875	-1194.3583984375	791.4943237304688	-360.6320190429688	-1251.735717773438	794.9593505859375	-313.5148315429688	-1272.665405273438	961.3834838867188	-352.16796875	-1235.200317382812	622.0464477539062	-350.9241027832031	-1265.525268554688	707.0371704101562	-307.4078063964844	-1239.923461914062	1546.197509765625	-551.1490478515625	-1079.772338867188	1564.694946289062	-667.833740234375	-1108.205444335938	1564.044311523438	-548.5307006835938	-1220.197265625	1544.559814453125	-712.1964721679688	-1261.546264648438	924.1945190429688	-800.49267578125	-1216.562622070312	922.9575805664062	-443.6644897460938	-1096.206176757812	927.0718383789062	-519.4988403320312	-1141.662231445312	911.038818359375	-779.0042114257812	-1322.798950195312	440.2749633789062	-758.24365234375	-1293.09228515625	580.0196533203125	-779.4449462890625	-1548.107421875	49.73531341552734	-685.23388671875	-1440.465209960938	235.1099700927734	-734.4288940429688	-1334.970092773438	44.56539535522461	-621.30029296875	-1413.544555664062	48.76510620117188	-591.2293701171875	-1422.51708984375	39.75104522705078	-697.4595336914062	-1587.087280273438	58.92597198486328	-629.5255126953125	-1009.576782226562	472.0762634277344	-509.1967163085938	-1086.296020507812	720.2163696289062	-468.0626220703125	-900.134521484375	59.68365478515625	-572.140869140625	-956.927734375	358.5140991210938	-530.1754150390625	-733.4754638671875	111.5153503417969	-629.7009887695312	-801.1416015625	91.01786804199219	-661.8162841796875	-817.6973876953125	72.79547882080078	-564.5087280273438	-961.8519897460938	28.09795761108398	-628.2377319335938	-1206.535400390625	686.1541748046875	-332.9754943847656	
214	2.13	-1305.37255859375	942.9619140625	-545.6824340820312	-1322.657348632812	942.267578125	-676.042236328125	-1307.303588867188	1024.331298828125	-614.2593994140625	-1061.490112304688	1155.702758789062	-624.0151977539062	-1312.104125976562	1126.176879882812	-628.4193725585938	-1250.111328125	1370.282470703125	-640.929443359375	-1103.938110351562	1278.772338867188	-624.2373046875	-1311.733642578125	1229.5810546875	-578.0404052734375	-1259.610717773438	1333.967407226562	-745.6661376953125	-1168.608642578125	1343.456787109375	-788.5184326171875	-1187.292846679688	1228.308959960938	-862.3676147460938	-1154.575317382812	1033.478759765625	-880.924072265625	-1222.65771484375	1006.739685058594	-834.42822265625	-1004.167114257812	883.6529541015625	-797.8240356445312	-1022.693969726562	851.0773315429688	-870.9727172851562	-1106.859130859375	946.6912231445312	-880.8617553710938	-926.5361328125	720.6517944335938	-785.9750366210938	-975.2691040039062	781.31640625	-852.7899169921875	-941.78955078125	803.6610717773438	-803.2839965820312	-1206.385375976562	1342.873291015625	-478.6368713378906	-1233.290405273438	1281.112426757812	-423.76806640625	-1275.789184570312	1024.782348632812	-379.0952758789062	-1275.547119140625	1011.466674804688	-472.6884460449219	-1188.492553710938	789.2731323242188	-361.7345275878906	-1246.142333984375	792.695068359375	-314.9949951171875	-1266.197509765625	959.3712158203125	-353.192626953125	-1229.86962890625	619.9265747070312	-353.2124328613281	-1260.276611328125	704.766845703125	-309.47119140625	-1232.21484375	1543.975341796875	-550.4437255859375	-1072.219116210938	1563.92919921875	-667.0776977539062	-1100.7001953125	1562.970092773438	-547.768798828125	-1212.354248046875	1542.484619140625	-711.466552734375	-1252.580200195312	922.597412109375	-800.2662353515625	-1207.338989257812	921.3780517578125	-443.5087890625	-1087.18798828125	925.5673828125	-519.4388427734375	-1132.392211914062	909.4186401367188	-778.8460693359375	-1317.262084960938	439.7512512207031	-757.9137573242188	-1286.296508789062	579.2332153320312	-779.09423828125	-1547.60205078125	51.61521911621094	-685.271240234375	-1437.691528320312	236.1161193847656	-734.41748046875	-1334.649169921875	44.17973709106445	-621.2842407226562	-1413.169799804688	49.30310440063477	-591.4662475585938	-1422.216064453125	39.75471115112305	-697.5216674804688	-1586.469360351562	61.80751037597656	-629.6553955078125	-999.60791015625	470.9430236816406	-509.7640991210938	-1076.376586914062	718.668701171875	-467.73974609375	-895.0299072265625	58.1112174987793	-573.4194946289062	-947.7696533203125	356.8954467773438	-531.2716064453125	-727.5364379882812	107.5095367431641	-630.6668701171875	-795.3242797851562	87.38941955566406	-662.9359741210938	-812.435546875	69.93516540527344	-565.7101440429688	-955.997314453125	26.30293273925781	-629.2074584960938	-1201.105834960938	683.88232421875	-334.6673889160156	
215	2.14	-1295.997802734375	941.4663696289062	-545.2862548828125	-1313.239135742188	940.7831420898438	-675.628173828125	-1298.044555664062	1022.905456542969	-613.9570922851562	-1052.327270507812	1154.171142578125	-623.3207397460938	-1302.790649414062	1124.712768554688	-628.2305908203125	-1240.967163085938	1368.851318359375	-640.3712768554688	-1094.787353515625	1277.237915039062	-623.4638061523438	-1302.798583984375	1228.068237304688	-577.9322509765625	-1250.201538085938	1332.686645507812	-745.2012939453125	-1159.058837890625	1342.224487304688	-787.7757568359375	-1177.517700195312	1227.139404296875	-861.8638305664062	-1144.711059570312	1032.357788085938	-880.43603515625	-1213.16015625	1005.451049804688	-834.2717895507812	-993.6334838867188	884.1466674804688	-796.75439453125	-1011.631164550781	851.2691040039062	-869.90283203125	-1096.617309570312	946.0706787109375	-880.21044921875	-913.876953125	722.1400756835938	-784.3216552734375	-963.4769897460938	782.0806274414062	-851.47509765625	-930.125244140625	804.9632568359375	-801.8388671875	-1197.698486328125	1341.092895507812	-478.0032958984375	-1224.8671875	1279.212524414062	-423.4670104980469	-1268.520874023438	1022.851196289062	-379.953125	-1267.831176757812	1009.951049804688	-473.5827331542969	-1182.286254882812	787.1316528320312	-362.8602905273438	-1240.143432617188	790.525390625	-316.4524536132812	-1259.398681640625	957.4300537109375	-354.1902770996094	-1224.162109375	617.899169921875	-355.4530029296875	-1254.625244140625	702.600830078125	-311.4904479980469	-1224.400512695312	1541.853881835938	-549.71435546875	-1064.553588867188	1563.332763671875	-666.2415161132812	-1093.1025390625	1562.023681640625	-546.9226684570312	-1204.332885742188	1540.514892578125	-710.6905517578125	-1243.228271484375	921.026611328125	-800.0289306640625	-1197.99658203125	919.9112548828125	-443.3396606445312	-1077.887084960938	924.1776733398438	-519.2887573242188	-1122.815063476562	907.8651733398438	-778.6587524414062	-1311.3046875	439.3181457519531	-757.5446166992188	-1279.085327148438	578.5380249023438	-778.6785888671875	-1546.977294921875	53.79204559326172	-685.3817749023438	-1434.673828125	237.3578948974609	-734.4285888671875	-1334.242919921875	43.75986480712891	-621.2628173828125	-1412.688232421875	49.93606948852539	-591.734130859375	-1421.836181640625	39.77816390991211	-697.60302734375	-1585.680908203125	65.06983184814453	-629.8382568359375	-989.4070434570312	469.9435119628906	-510.427001953125	-1066.193969726562	717.1629638671875	-467.3134460449219	-891.03369140625	56.60065460205078	-574.6112060546875	-938.6807861328125	355.2676086425781	-532.4244384765625	-722.3966674804688	102.4694976806641	-631.53076171875	-790.4144897460938	83.06212615966797	-663.9973754882812	-808.2237548828125	66.67810821533203	-566.8394775390625	-951.2868041992188	24.8683032989502	-630.0870361328125	-1195.329467773438	681.7063598632812	-336.3536071777344	
